# xmcd
#
# Track frame offsets: 
#        150
#        20455
#        40898
#        53718
#        72108
#        90450
#        112098
#        130175
#        147200
#        160335
#        171125
#        184765
#
# Disc length: 2592 seconds
#
# Revision: 0
# Processed by: cddbd v1.5.2PL0 Copyright (c) Steve Scherf et al.
# Submitted via: ExactAudioCopy v1.0b3
#
DISCID=9f0a1e0c
DTITLE=Kasey Chambers - The Captain
DYEAR=2003
DGENRE=Country
TTITLE0=Cry Like a Baby
TTITLE1=The Captain
TTITLE2=This Flower
TTITLE3=You Got the Car
TTITLE4=These Pines
TTITLE5=Don't Talk Back
TTITLE6=Southern Kind of Life
TTITLE7=Mr. Baylis
TTITLE8=The Hard Way
TTITLE9=Last Hard Bible
TTITLE10=Don't Go
TTITLE11=We're All Gonna Die Someday
EXTD=
EXTT0=
EXTT1=
EXTT2=
EXTT3=
EXTT4=
EXTT5=
EXTT6=
EXTT7=
EXTT8=
EXTT9=
EXTT10=
EXTT11=
PLAYORDER=
